# xmcd
#
# Track frame offsets: 
#        150
#        16990
#        32304
#        46795
#        61615
#        81103
#        95798
#        111697
#        128534
#        141686
#        156230
#        167537
#        182092
#        201255
#        213316
#        228015
#        245683
#
# Disc length: 3494 seconds
#
# Revision: 0
# Processed by: cddbd v1.5.2PL0 Copyright (c) Steve Scherf et al.
# Submitted via: ExactAudioCopy v1.0b3
#
DISCID=e30da411
DTITLE=Various Artist - Country Rock Heads Vol.2!
DYEAR=2012
DGENRE=Country
TTITLE0=Daniels Band, Charlie - American Farmer
TTITLE1=Monroe, Rick - I Remember The Music
TTITLE2=Ball, David - Hot Water Pipe
TTITLE3=Christina - A New Beginning
TTITLE4=Mackay, Jackson - Tagalong
TTITLE5=Wild Bunch, The - I'm Going Down
TTITLE6=Nevers, Steff - Ain't No Bad Life
TTITLE7=Violet, Madison - The Good In Goodbye
TTITLE8=Rascal and McLane - Honky Tonk Of Life
TTITLE9=Eye, Henry - Cowgirls
TTITLE10=Mystic, Downtown - Shade Of White Bluegrass
TTITLE11=Sky, Memphis - Pay Your Dues
TTITLE12=Mountarillo - One Night At The Last Call
TTITLE13=Train, Chicken - That's What I Need
TTITLE14=Carl, Jolina and Gitty - Dancing At The Party
TTITLE15=Line, Spare - Delia Says
TTITLE16=Sutcliffe - D.Sensation
EXTD=
EXTT0=
EXTT1=
EXTT2=
EXTT3=
EXTT4=
EXTT5=
EXTT6=
EXTT7=
EXTT8=
EXTT9=
EXTT10=
EXTT11=
EXTT12=
EXTT13=
EXTT14=
EXTT15=
EXTT16=
PLAYORDER=
